<?xml version="1.0" encoding="UTF-8"?>
<svg width="30px" height="40px" viewBox="0 0 30 40" version="1.1" xmlns="http://www.w3.org/2000/svg" xmlns:xlink="http://www.w3.org/1999/xlink">
    <title>linux (1)</title>
    <g id="Page-1" stroke="none" stroke-width="1" fill="none" fill-rule="evenodd">
        <g id="1440~" transform="translate(-517.000000, -6180.000000)">
            <g id="Group-18" transform="translate(350.000000, 5980.000000)">
                <g id="Group-7" transform="translate(0.000000, 200.000000)">
                    <g id="linux-(1)" transform="translate(167.000000, 0.000000)">
                        <rect id="Rectangle" x="0" y="0" width="30" height="40"></rect>
                        <path d="M3.42384615,34.7530769 C5.24945055,34.9710989 7.30065934,36.1537363 9.01725275,36.3625275 C10.7430769,36.5804396 11.2771429,35.1872527 11.2771429,35.1872527 C11.2771429,35.1872527 13.2192308,34.7530769 15.260989,34.7030769 C17.3047253,34.6458242 19.2393407,35.1281319 19.2393407,35.1281319 C19.2393407,35.1281319 19.6145055,35.9873626 20.3148352,36.3625275 C21.0151648,36.7449451 22.522967,36.7967033 23.4893407,35.7785714 C24.4575824,34.7530769 27.0408791,33.4613187 28.4914286,32.6538462 C29.9512088,31.8445055 29.6832967,30.6102198 28.7668132,30.2350549 C27.8503297,29.86 27.1001099,29.2686813 27.1573626,28.1340659 C27.2072527,27.0087912 26.348022,26.2585714 26.348022,26.2585714 C26.348022,26.2585714 27.1001099,23.7825275 26.3997802,21.7314286 C25.6994505,19.6896703 23.3896703,16.406044 21.613956,13.9373626 C19.8382418,11.4613187 21.3459341,8.60274725 19.7292308,4.94956044 C18.1123077,1.29087912 13.9196703,1.50714286 11.6597802,3.06659341 C9.39989011,4.62615385 10.0927473,8.49362637 10.2017582,10.3285714 C10.3107692,12.1541758 10.2516484,13.4605495 10.0428571,13.93 C9.83406593,14.4067033 8.37615385,16.1381319 7.40791209,17.5886813 C6.44153846,19.0465934 5.7410989,22.0567033 5.03340659,23.2984615 C4.34043956,24.5328571 4.82461538,25.6581319 4.82461538,25.6581319 C4.82461538,25.6581319 4.34054945,25.8243956 3.95802198,26.6338462 C3.58285714,27.433956 2.83263736,27.8163736 1.48186813,28.077033 C0.14032967,28.3523077 0.14032967,29.2171429 0.463736264,30.1853846 C0.788901099,31.1517582 0.463736264,31.6931868 0.0885714286,32.9275824 C-0.286483516,34.1617582 1.59087912,34.5368132 3.42384615,34.7530769 Z M22.400989,29.1226374 C23.36,29.5420879 24.7384615,28.9581319 25.1579121,28.5386813 C25.5756044,28.1210989 25.8712088,27.5002198 25.8712088,27.5002198 C25.8712088,27.5002198 26.2906593,27.709011 26.2481319,28.3723077 C26.2037363,29.0449451 26.5363736,30.003956 27.1646154,30.3365934 C27.7928571,30.6673626 28.7518681,31.1292308 28.2548352,31.5912088 C27.7484615,32.0531868 24.9472527,33.1803297 24.1102198,34.0598901 C23.2805495,34.9338462 22.1903297,35.649011 21.5269231,35.4383516 C20.8562637,35.2295604 20.2704396,34.3130769 20.5587912,32.9715385 C20.8562637,31.6356044 21.1075824,30.1702198 21.0650549,29.3331868 C21.0207692,28.4961538 20.8562637,27.369011 21.0650549,27.2026374 C21.2738462,27.0381319 21.6064835,27.1175824 21.6064835,27.1175824 C21.6064835,27.1175824 21.44,28.7051648 22.400989,29.1226374 Z M16.1775824,6.50912088 C17.1014286,6.50912088 17.8461538,7.4256044 17.8461538,8.55274725 C17.8461538,9.35285714 17.470989,10.0458242 16.9221978,10.3784615 C16.7836264,10.3212088 16.6394505,10.2564835 16.4805495,10.1898901 C16.8131868,10.0254945 17.0440659,9.60604396 17.0440659,9.12186813 C17.0440659,8.48813187 16.6542857,7.96703297 16.1645055,7.96703297 C15.6878022,7.96703297 15.2904396,8.48802198 15.2904396,9.12186813 C15.2904396,9.35296703 15.3478022,9.58384615 15.441978,9.76494505 C15.1537363,9.64846154 14.8931868,9.54879121 14.6843956,9.46934066 C14.5753846,9.19395604 14.5106593,8.88351648 14.5106593,8.55285714 C14.5107692,7.42571429 15.2535165,6.50912088 16.1775824,6.50912088 Z M13.8898901,10.0310989 C14.3445055,10.1105495 15.5935165,10.651978 16.0556044,10.8182418 C16.5175824,10.9771429 17.0293407,11.2727473 16.9794505,11.5684615 C16.9221978,11.8732967 16.6838462,11.8732967 16.0556044,12.2558242 C15.4347253,12.630989 14.0784615,13.468022 13.6441758,13.5252747 C13.2117582,13.5825275 12.966044,13.3385714 12.503956,13.0410989 C12.041978,12.738022 11.1754945,12.0303297 11.3934066,11.6552747 C11.3934066,11.6552747 12.0715385,11.136044 12.3672527,10.87 C12.662967,10.5946154 13.4279121,9.94604396 13.8898901,10.0310989 Z M11.8979121,6.8343956 C12.6259341,6.8343956 13.2191209,7.70098901 13.2191209,8.76901099 C13.2191209,8.96307692 13.1969231,9.14406593 13.1618681,9.32516484 C12.9807692,9.38241758 12.7997802,9.4767033 12.6259341,9.62824176 C12.540989,9.70032967 12.4614286,9.76494505 12.3894505,9.83703297 C12.503956,9.62087912 12.5483516,9.31043956 12.4965934,8.98516484 C12.3968132,8.40868132 12.0069231,7.98186813 11.6243956,8.03912088 C11.24,8.10384615 11.0108791,8.63230769 11.1032967,9.21626374 C11.2049451,9.80758242 11.5873626,10.2342857 11.9772527,10.1696703 C11.9994505,10.1623077 12.0197802,10.1549451 12.041978,10.1474725 C11.8553846,10.3285714 11.6816484,10.4874725 11.5005495,10.6168132 C10.973956,10.370989 10.5840659,9.6356044 10.5840659,8.76901099 C10.5841758,7.69362637 11.168022,6.8343956 11.8979121,6.8343956 Z M7.84197802,20.8149451 C8.5921978,19.6324176 9.07626374,17.0472527 9.82648352,16.188022 C10.5841758,15.3306593 11.168022,13.5031868 10.901978,12.6957143 C10.901978,12.6957143 12.5187912,14.6303297 13.6441758,14.3125275 C14.7713187,13.9872527 17.3047253,12.1043956 17.6797802,12.4278022 C18.0549451,12.752967 21.2812088,19.8485714 21.6063736,22.1084615 C21.9316484,24.3664835 21.3902198,26.0924176 21.3902198,26.0924176 C21.3902198,26.0924176 20.1559341,25.7671429 19.9969231,26.5173626 C19.838022,27.2749451 19.838022,30.019011 19.838022,30.019011 C19.838022,30.019011 18.1694505,32.3287912 15.5861538,32.7112088 C13.0028571,33.0863736 11.7093407,32.8128571 11.7093407,32.8128571 L10.2587912,31.1516484 C10.2587912,31.1516484 11.386044,30.9853846 11.227033,29.8526374 C11.0681319,28.7273626 7.78263736,27.1676923 7.19131868,25.767033 C6.60021978,24.3663736 7.08252747,21.9993407 7.84197802,20.8149451 Z M1.45406593,29.289011 C1.58340659,28.7347253 3.25747253,28.7347253 3.90054945,28.3448352 C4.54362637,27.9549451 4.67285714,26.8351648 5.1921978,26.5395604 C5.70395604,26.2364835 6.65010989,27.311978 7.04,27.9179121 C7.42252747,28.5092308 8.88791209,31.0943956 9.48659341,31.7373626 C10.0926374,32.3859341 10.6489011,33.2451648 10.4751648,34.0175824 C10.3107692,34.7898901 9.39978022,35.3535165 9.39978022,35.3535165 C8.58494505,35.6048352 6.31208791,34.6236264 5.27923077,34.1912088 C4.24637363,33.757033 1.61868132,33.6275824 1.28054945,33.2451648 C0.933186813,32.8552747 1.44681319,31.996044 1.58351648,31.1810989 C1.70538462,30.357033 1.32296703,29.8451648 1.45406593,29.289011 Z" id="Shape" fill="#3A424E" fill-rule="nonzero"></path>
                    </g>
                </g>
            </g>
        </g>
    </g>
</svg>