<?xml version="1.0" encoding="UTF-8"?>
<svg width="32px" height="40px" viewBox="0 0 32 40" version="1.1" xmlns="http://www.w3.org/2000/svg" xmlns:xlink="http://www.w3.org/1999/xlink">
    <title>android-seeklogo.com</title>
    <g id="Page-1" stroke="none" stroke-width="1" fill="none" fill-rule="evenodd">
        <g id="1440~" transform="translate(-462.000000, -6180.000000)">
            <g id="Group-18" transform="translate(350.000000, 5980.000000)">
                <g id="Group-7" transform="translate(0.000000, 200.000000)">
                    <g id="android-seeklogo.com" transform="translate(112.000000, 0.000000)">
                        <rect id="Rectangle" x="0" y="0" width="32" height="40"></rect>
                        <path d="M26.1073604,14.0504235 L26.1073604,28.5445931 C26.1073604,29.8302692 25.1137234,30.8753332 23.8493523,30.9568813 L23.6899482,30.9620042 L22.0858497,30.9610906 L22.0863516,35.90669 C22.0863516,37.1033535 21.1738293,38.0657218 19.9987696,38.1438417 L19.8440655,38.1489631 C18.5953764,38.1489631 17.6017782,37.1553823 17.6017782,35.90669 L17.6017782,35.90669 L17.6008497,30.9610906 L14.6138497,30.9610906 L14.6143521,35.90669 C14.6143521,37.1033535 13.7018288,38.0657218 12.526769,38.1438417 L12.3720649,38.1489631 C11.1233758,38.1489631 10.1297783,37.1553823 10.1297783,35.90669 L10.1297783,35.90669 L10.1288497,30.9610906 L8.52618279,30.9620042 C7.24050652,30.9620042 6.19544197,29.9683672 6.11389389,28.7039971 L6.10877098,28.5445931 L6.10877098,14.0504235 L26.1073604,14.0504235 Z M3.03213655,13.665835 C4.28082528,13.665835 5.27442332,14.6594332 5.27442332,15.9081222 L5.27442332,15.9081222 L5.27442332,25.2481221 C5.27442332,26.4968111 4.28082528,27.4904094 3.03213655,27.4904094 C1.78344772,27.4904094 0.789849745,26.4968111 0.789849745,25.2481221 L0.789849745,25.2481221 L0.789849745,15.9081222 C0.789849745,14.6594332 1.78344772,13.665835 3.03213655,13.665835 Z M29.184138,13.665835 C30.4328271,13.665835 31.4264242,14.6594332 31.4264242,15.9081222 L31.4264242,15.9081222 L31.4264242,25.2481221 C31.4264242,26.4968111 30.4328271,27.4904094 29.184138,27.4904094 C27.9354489,27.4904094 26.9418508,26.4968111 26.9418508,25.2481221 L26.9418508,25.2481221 L26.9418508,15.9081222 C26.9418508,14.6594332 27.9354489,13.665835 29.184138,13.665835 Z M22.3164192,1.89810576 C22.3694255,1.89862654 22.4188173,1.91233887 22.4675075,1.93932664 C22.6045575,2.01529556 22.6627665,2.16113751 22.6206461,2.30220137 L22.5911257,2.37198952 L21.0115658,5.22549705 C23.9611827,6.76026403 25.981652,9.63629236 26.1017085,12.9575138 L26.1073604,13.2606446 L6.10877098,13.2606446 C6.11276401,9.91326451 8.04659265,6.98392403 10.9390044,5.36869132 L11.2045646,5.22549705 L9.62500633,2.37198952 C9.53615215,2.21169241 9.58873194,2.02795705 9.74862401,1.93932664 C9.79731398,1.91233887 9.84670604,1.8986634 9.89971224,1.89810576 C9.99048913,1.89724742 10.0774825,1.93335751 10.1396468,2.00375738 L10.1812857,2.06294476 L11.7814478,4.9473571 C13.0904426,4.36672933 14.5586853,4.04082819 16.1080658,4.04082819 C17.5283301,4.04082819 18.8804161,4.31467567 20.1041612,4.80754815 L20.4346827,4.9473571 L22.0348447,2.06294476 C22.095388,1.95372308 22.2029465,1.89702633 22.3164192,1.89810576 Z M11.4929791,7.93134977 C11.0364486,7.93134977 10.6585598,8.3092381 10.6585598,8.76576965 C10.6585598,9.22230011 11.0364486,9.60018843 11.4929791,9.60018843 C11.9495096,9.60018843 12.3273979,9.22230011 12.3273979,8.76576965 C12.3273979,8.3092381 11.9495096,7.93134977 11.4929791,7.93134977 Z M20.7230971,7.93134977 C20.2665665,7.93134977 19.8886772,8.3092381 19.8886772,8.76576965 C19.8886772,9.22230011 20.2665665,9.60018843 20.7230971,9.60018843 C21.1796265,9.60018843 21.5575158,9.22230011 21.5575158,8.76576965 C21.5575158,8.3092381 21.1796265,7.93134977 20.7230971,7.93134977 Z" id="Combined-Shape" fill="#3A424E" fill-rule="nonzero"></path>
                    </g>
                </g>
            </g>
        </g>
    </g>
</svg>