<?xml version="1.0" encoding="utf-8"?>
<!-- Generator: Adobe Illustrator 25.2.0, SVG Export Plug-In . SVG Version: 6.00 Build 0)  -->
<svg version="1.1" id="Layer_1" xmlns="http://www.w3.org/2000/svg" xmlns:xlink="http://www.w3.org/1999/xlink" x="0px" y="0px"
	 viewBox="0 0 125 28" style="enable-background:new 0 0 125 28;" xml:space="preserve">
<style type="text/css">
	.st0{fill-rule:evenodd;clip-rule:evenodd;fill:#09BB07;}
	.st1{fill-rule:evenodd;clip-rule:evenodd;fill:#494949;}
</style>
<path id="Fill-1" class="st0" d="M11.4,17.5c-0.1,0.1-0.3,0.1-0.5,0.1c-0.4,0-0.7-0.2-0.9-0.5L10,16.9l-2.9-6.3
	c0-0.1-0.1-0.1-0.1-0.2c0-0.3,0.2-0.5,0.5-0.5c0.1,0,0.2,0,0.3,0.1l3.4,2.4c0.2,0.2,0.5,0.3,0.9,0.3c0.2,0,0.4,0,0.5-0.1l15.9-7.1
	C25.7,2.2,21,0,15.7,0C7,0,0,5.9,0,13.1C0,17,2.1,20.6,5.4,23c0.3,0.2,0.4,0.5,0.4,0.9c0,0.1,0,0.2-0.1,0.3c-0.3,1-0.7,2.6-0.7,2.6
	C5.1,26.9,5,27,5,27.2c0,0.3,0.2,0.5,0.5,0.5c0.1,0,0.2,0,0.3-0.1l3.4-2c0.3-0.1,0.5-0.2,0.8-0.2c0.2,0,0.3,0,0.5,0.1
	c1.6,0.5,3.3,0.7,5.1,0.7c8.7,0,15.7-5.9,15.7-13.1c0-2.2-0.6-4.2-1.8-6.1L11.5,17.5L11.4,17.5z"/>
<path class="st1" d="M69.2,10.4h11.8V9.3H69.2V10.4z M69.2,13.7h11.8v-1.1H69.2V13.7z M70.6,21.3h8.9V17h-8.9V21.3z M69.5,22.3h11.2
	V16H69.5V22.3z M65.9,23V8.4c0.7-1.4,1.3-3,1.7-4.6l-1.1-0.6c-1,3.7-2.6,7-4.5,9.8l0.6,1.1c0.7-1,1.4-2.1,2-3.3V23H65.9z M108.7,23
	V8.4c0.7-1.4,1.3-3,1.7-4.6l-1.1-0.6c-1,3.7-2.6,7-4.5,9.8l0.6,1.1c0.7-1,1.4-2.1,2-3.3V23H108.7z M82.2,5.9h-6.9L76,5.5l0,0l0,0
	c-0.1-0.2-0.3-0.7-0.5-1.1c-0.2-0.5-0.4-0.9-0.5-1.2l0,0l-1,0.6l0,0c0.4,0.7,0.7,1.4,1,2c0,0.1,0.1,0.2,0.1,0.2H68v1.1h14.2V5.9z
	 M51.8,5.1h-1.1v3.7h-2V3.5h-1.1v5.3h-2.1V5.1h-1.1v4.8h7.2V5.1z M44.9,13h6.4v-1.1h-6.4V13z M46.3,17v-1h3.2v2.4
	c0,0.8-0.1,1.1-0.4,1.5l0,0l0.6,1.1l0,0c0.6-0.5,1.5-1.3,2.9-2.5l0,0l-0.5-0.9l0,0L50.6,19v-4h-5.4v1.6c0.2,2.2-0.4,3.8-1.6,4.7l0,0
	l0.6,1l0,0l0,0C45.7,21.1,46.4,19.3,46.3,17 M39.3,8.5L40,9.6c1.6-1.6,3-3.6,4.1-5.7l-1-0.6C42.1,5.3,40.8,7.1,39.3,8.5 M39.1,15.1
	l0.6,1l0,0l0,0c0.6-0.7,1.2-1.5,1.8-2.3V23h1.1V12.1c0.5-0.8,0.9-1.8,1.4-2.8l0,0l-1-0.6l0,0C41.9,11.1,40.6,13.3,39.1,15.1
	L39.1,15.1z M55.6,16.4c-0.7-1.8-1.2-4.2-1.5-7.2c0.1-0.3,0.2-0.6,0.4-1h2.8C57.1,11.6,56.5,14.4,55.6,16.4L55.6,16.4z M59.5,8.2
	V7.1h-4.7l0,0c0.4-1.2,0.9-2.7,1-3.9l-1.1,0c-0.7,3.2-1.7,6-3.1,8.2l0.7,1.2l0.5-1c0.2-0.3,0.3-0.6,0.4-0.8c0.3,2.8,0.9,5.1,1.7,6.8
	c-0.8,1.3-2,2.7-3.5,4.1l0,0l0.6,1.1l0,0l0,0c1.7-1.6,2.8-2.9,3.4-4.1c0.7,1.2,1.9,2.7,3.2,4.1l0,0l0.6-1.1l0,0l0,0
	c-1.5-1.4-2.6-2.9-3.3-4.1c1.2-2.2,1.9-5.4,2.2-9.5H59.5z M99,11.8c0,0-1.2,3.3-5.1,6.2c-1.9-1.4-3.8-3.6-5.1-6.2H99z M103.6,7.1
	V5.9h-9V3.1h-1.2v2.9h-8.9v1.1h8.9v3.7h-0.2h-5.6l0,1c0,0,0.9,2,2.7,4.2c0.7,0.9,1.6,1.8,2.7,2.7c-2,1.2-4.6,2.4-8.1,3.1l0.7,1.2
	c0,0,4.2-0.9,8.3-3.6c0.6,0.4,3.1,2.4,7.9,3.5c0,0,0,0,0,0l0,0l0.5-0.9c0,0-1.2-0.3-3.1-1c-1.3-0.5-2.9-1.3-4.5-2.3
	c2.3-1.7,4.4-4.2,5.6-7.3l-0.9-0.5h-4.8h0V7.1H103.6z M118,21.5c-0.2,0-0.4,0-0.7,0v1.1c0.5,0,0.8,0,1,0c1.1,0,1.7-0.2,2.2-0.7
	c0.5-0.5,0.7-1.2,0.7-2.1V9.3h3.1V8.1h-3.1V3.3h-1.1v4.9h-9.4v1.1h9.4v10.6C120.1,21,119.4,21.5,118,21.5 M115.5,17.8l1.1-0.7
	c-0.6-1.2-1.4-2.9-2.4-4.9l-1,0.6C113.9,14.2,114.6,15.9,115.5,17.8"/>
</svg>
