<?xml version="1.0" encoding="utf-8"?>
<!-- Generator: Adobe Illustrator 25.2.0, SVG Export Plug-In . SVG Version: 6.00 Build 0)  -->
<svg version="1.1" id="Layer_1" xmlns="http://www.w3.org/2000/svg" xmlns:xlink="http://www.w3.org/1999/xlink" x="0px" y="0px"
	 viewBox="0 0 80 28" style="enable-background:new 0 0 80 28;" xml:space="preserve">
<style type="text/css">
	.st0{fill:#027AFF;}
	.st1{fill:#3F3B3A;}
</style>
<path id="Shape" class="st0" d="M4.5,0C2,0,0,2,0,4.5v19C0,26,2,28,4.5,28h19.2c2.5,0,4.5-2,4.5-4.5v-0.2c-0.1,0-7.3-3-11-4.8
	c-2.5,3-5.7,4.9-9,4.9c-5.6,0-7.6-4.9-4.9-8.1c0.6-0.7,1.6-1.4,3.1-1.7c2.4-0.6,6.2,0.4,9.8,1.5c0.6-1.2,1.2-2.5,1.6-3.9H6.8v-1.1
	h5.7v-2H5.6V7h6.9V4.2c0,0,0-0.5,0.5-0.5h2.8V7h6.8v1.1h-6.8v2h5.6C20.8,12.3,20,14.3,19,16c1.7,0.6,3.2,1.2,4.3,1.6
	c3.8,1.3,4.8,1.4,5,1.4V4.5c0-2.5-2-4.5-4.5-4.5H4.5L4.5,0z M7.6,15.2c-0.2,0-0.5,0-0.7,0c-0.7,0.1-2,0.4-2.8,1
	c-2.2,1.9-0.9,5.3,3.5,5.3c2.6,0,5.1-1.6,7.1-4.2C12.2,16.1,10,15.1,7.6,15.2L7.6,15.2z"/>
<path id="Shape_1_" class="st1" d="M77.4,19.5l-1.3,2.7l-1.3-2.7h-1.3l2,3.8v2.6h1.1v-2.6l0,0l1.9-3.8L77.4,19.5z M68.2,21.1
	l0.9,2.7h-1.8L68.2,21.1z M69.3,24.6l0.4,1.3H71l-2.4-6.4h-0.9l-2.4,6.4h1.2l0.4-1.3H69.3z M60.4,22.5h-1.3v-2.2h1.3
	c0.6,0,1,0.6,1,1.1C61.4,22,61,22.5,60.4,22.5 M60.4,19.5h-2.5v6.4h1.2v-2.5h1.3c1.3,0,2.1-0.8,2.1-2S61.7,19.5,60.4,19.5
	 M52.1,25.9h1.2v-6.4h-1.2V25.9z M44,19.5v6.4h3.9V25h-2.7v-5.5L44,19.5z M37.4,21.1l0.9,2.7h-1.8L37.4,21.1z M38.5,24.6l0.4,1.3
	h1.2l-2.4-6.4h-0.9l-2.4,6.4h1.2l0.4-1.3H38.5z M46.7,7h-5V5.2h5.7V4.1h-5.7V1.9h-2.6c-0.3,0-0.5,0.2-0.5,0.5v1.7h-5.7v1.1h5.7V7
	h-4.8v1.1h9.6c0,0-0.5,2.1-3.2,4.3c-2.4-1.8-3.1-3.2-3.1-3.2h-2.6c1,1.8,2.5,3.2,4.1,4.4c-1.5,0.9-3.4,1.9-5.8,2.6v1.3
	c0,0,3.8-0.7,7.5-2.9c3.7,2.1,7.4,2.9,7.4,2.9v-1.3c-2.4-0.8-4.2-1.8-5.7-2.7C44.1,11.9,45.9,9.8,46.7,7 M62.8,2.1h-2.6v2.7h-6.4
	v1.1h6.4v9.6c0,0.2-0.2,0.4-0.4,0.4h-1.3V17h3.4c0.5,0,1-0.5,1-1V5.9h1V4.8h-1L62.8,2.1z M57.3,7.7c-0.1-0.2-0.3-0.3-0.5-0.3h-2.2
	l1.7,5.2h2.5L57.3,7.7z M51,2l-3,7h2.3v8.3h2.5v-11h-0.9L53.7,2L51,2z M79.8,16.8l-0.9-3c-0.1-0.2-0.2-0.3-0.4-0.3H76l0.7,2.3h-2.8
	v-4.5h5.6v-1.1h-5.6V8h5.6V7H65.6V8h5.6v2.1h-5.6v1.1h5.6v4.5h-5.6v1.1L79.8,16.8L79.8,16.8L79.8,16.8z M68.5,4.4h8.1V6h2.9V4.1v0
	c0-0.4-0.3-0.8-0.7-0.8h-4.7V1.8h-3v1.5h-5.4V6h2.9L68.5,4.4z"/>
</svg>
