<?xml version="1.0" encoding="UTF-8"?>
<svg width="31px" height="40px" viewBox="0 0 31 40" version="1.1" xmlns="http://www.w3.org/2000/svg" xmlns:xlink="http://www.w3.org/1999/xlink">
    <title>apple</title>
    <g id="Page-1" stroke="none" stroke-width="1" fill="none" fill-rule="evenodd">
        <g id="1440~" transform="translate(-350.000000, -6180.000000)">
            <g id="Group-18" transform="translate(350.000000, 5980.000000)">
                <g id="Group-7" transform="translate(0.000000, 200.000000)">
                    <g id="apple" transform="translate(-0.000000, 0.000000)">
                        <rect id="Rectangle" x="0" y="0" width="31" height="40"></rect>
                        <path d="M21.102969,5.97948718 C22.5834008,4.39460189 23.5847503,2.19419703 23.3106613,0 C21.1778677,0.0761133603 18.5929825,1.25195682 17.0620783,2.83670715 C15.6897436,4.23967611 14.4882591,6.48191633 14.8089069,8.63306343 C17.1887989,8.79406208 19.620108,7.56180837 21.102969,5.97948718 Z M25.6450742,21.1326586 C25.5995951,16.2134953 29.5396761,13.8508772 29.71417,13.7367072 C27.4990553,10.3962213 24.0492578,9.9391363 22.8206478,9.88758435 C19.8831309,9.57921727 17.0929825,11.6665317 15.6016194,11.6665317 C14.1163293,11.6665317 11.8188934,9.92807018 9.38259109,9.97476383 C6.17975709,10.0275304 3.22860999,11.8925776 1.58367072,14.848448 C-1.74345479,20.7948718 0.730904184,29.6036437 3.97300945,34.4269906 C5.55789474,36.7882591 7.44493927,39.437112 9.92294197,39.3412955 C12.3149798,39.2454791 13.2167341,37.7503374 16.1026991,37.7503374 C18.9898785,37.7503374 19.7982456,39.3412955 22.3241565,39.2933873 C24.894332,39.2454791 26.5209177,36.8866397 28.0923077,34.5179487 C29.9105263,31.7794872 30.660054,29.1282051 30.702969,28.994332 C30.6477733,28.9623482 25.6978408,27.0151147 25.6450742,21.1326586 Z" id="Shape" fill="#3A424E" fill-rule="nonzero"></path>
                    </g>
                </g>
            </g>
        </g>
    </g>
</svg>